<mxfile host="app.diagrams.net" modified="2023-10-28T13:07:45.954Z" agent="Mozilla/5.0 (Windows NT 10.0; Win64; x64) AppleWebKit/537.36 (KHTML, like Gecko) Chrome/118.0.0.0 Safari/537.36" etag="vlSPlcQ5QyvogxEfDuNv" version="22.0.8" type="google">
  <diagram name="第 1 页" id="R3KFXXsRCFFiP4IZuCev">
    <mxGraphModel grid="1" page="1" gridSize="10" guides="1" tooltips="1" connect="1" arrows="1" fold="1" pageScale="1" pageWidth="827" pageHeight="1169" math="0" shadow="0">
      <root>
        <mxCell id="0" />
        <mxCell id="1" parent="0" />
        <mxCell id="NXSZCElVhn8slsT99n_t-1" value="big mom：&lt;br&gt;學生&lt;br&gt;&lt;hr&gt;" style="rounded=0;whiteSpace=wrap;html=1;" vertex="1" parent="1">
          <mxGeometry x="-760" y="130" width="120" height="60" as="geometry" />
        </mxCell>
        <mxCell id="NXSZCElVhn8slsT99n_t-2" value="703：&lt;br&gt;card　no&lt;br&gt;&lt;hr&gt;" style="rounded=0;whiteSpace=wrap;html=1;" vertex="1" parent="1">
          <mxGeometry x="-460" y="130" width="120" height="60" as="geometry" />
        </mxCell>
        <mxCell id="NXSZCElVhn8slsT99n_t-3" value="索隆：&lt;br&gt;操作員&lt;br&gt;&lt;hr&gt;" style="rounded=0;whiteSpace=wrap;html=1;" vertex="1" parent="1">
          <mxGeometry x="-430" y="310" width="120" height="60" as="geometry" />
        </mxCell>
        <mxCell id="NXSZCElVhn8slsT99n_t-4" value="喬八：&lt;br&gt;一般用戶&lt;br&gt;&lt;hr&gt;" style="rounded=0;whiteSpace=wrap;html=1;" vertex="1" parent="1">
          <mxGeometry x="-680" y="320" width="120" height="60" as="geometry" />
        </mxCell>
        <mxCell id="NXSZCElVhn8slsT99n_t-5" value="703上機：&lt;br&gt;online&lt;br&gt;&lt;hr&gt;" style="rounded=0;whiteSpace=wrap;html=1;" vertex="1" parent="1">
          <mxGeometry x="-760" y="500" width="120" height="60" as="geometry" />
        </mxCell>
        <mxCell id="NXSZCElVhn8slsT99n_t-6" value="703：&lt;br&gt;充值&lt;br&gt;&lt;hr&gt;" style="rounded=0;whiteSpace=wrap;html=1;" vertex="1" parent="1">
          <mxGeometry x="-430" y="500" width="120" height="60" as="geometry" />
        </mxCell>
        <mxCell id="NXSZCElVhn8slsT99n_t-7" value="路飛：&lt;br&gt;管理員&lt;br&gt;&lt;hr&gt;" style="rounded=0;whiteSpace=wrap;html=1;" vertex="1" parent="1">
          <mxGeometry x="-180" y="310" width="120" height="60" as="geometry" />
        </mxCell>
        <mxCell id="NXSZCElVhn8slsT99n_t-8" value="今日帳單：&lt;br&gt;CheceDay&lt;br&gt;&lt;hr&gt;" style="rounded=0;whiteSpace=wrap;html=1;" vertex="1" parent="1">
          <mxGeometry x="-140" y="500" width="120" height="60" as="geometry" />
        </mxCell>
        <mxCell id="NXSZCElVhn8slsT99n_t-9" value="" style="endArrow=none;html=1;rounded=0;exitX=1;exitY=0.5;exitDx=0;exitDy=0;entryX=0;entryY=0.5;entryDx=0;entryDy=0;" edge="1" parent="1" source="NXSZCElVhn8slsT99n_t-1" target="NXSZCElVhn8slsT99n_t-2">
          <mxGeometry width="50" height="50" relative="1" as="geometry">
            <mxPoint x="-610" y="180" as="sourcePoint" />
            <mxPoint x="-560" y="130" as="targetPoint" />
          </mxGeometry>
        </mxCell>
        <mxCell id="NXSZCElVhn8slsT99n_t-10" value="" style="endArrow=none;html=1;rounded=0;entryX=0.5;entryY=1;entryDx=0;entryDy=0;exitX=0.5;exitY=0;exitDx=0;exitDy=0;" edge="1" parent="1" source="NXSZCElVhn8slsT99n_t-4" target="NXSZCElVhn8slsT99n_t-2">
          <mxGeometry width="50" height="50" relative="1" as="geometry">
            <mxPoint x="-340" y="290" as="sourcePoint" />
            <mxPoint x="-290" y="240" as="targetPoint" />
          </mxGeometry>
        </mxCell>
        <mxCell id="NXSZCElVhn8slsT99n_t-11" value="" style="endArrow=none;html=1;rounded=0;exitX=0.5;exitY=0;exitDx=0;exitDy=0;" edge="1" parent="1" source="NXSZCElVhn8slsT99n_t-3">
          <mxGeometry width="50" height="50" relative="1" as="geometry">
            <mxPoint x="-400" y="270" as="sourcePoint" />
            <mxPoint x="-400" y="190" as="targetPoint" />
          </mxGeometry>
        </mxCell>
        <mxCell id="NXSZCElVhn8slsT99n_t-12" value="" style="endArrow=none;html=1;rounded=0;entryX=0.5;entryY=0;entryDx=0;entryDy=0;" edge="1" parent="1" target="NXSZCElVhn8slsT99n_t-7">
          <mxGeometry width="50" height="50" relative="1" as="geometry">
            <mxPoint x="-400" y="190" as="sourcePoint" />
            <mxPoint x="-290" y="240" as="targetPoint" />
          </mxGeometry>
        </mxCell>
        <mxCell id="NXSZCElVhn8slsT99n_t-13" value="" style="endArrow=none;html=1;rounded=0;entryX=0.5;entryY=1;entryDx=0;entryDy=0;exitX=0.5;exitY=0;exitDx=0;exitDy=0;" edge="1" parent="1" source="NXSZCElVhn8slsT99n_t-8" target="NXSZCElVhn8slsT99n_t-7">
          <mxGeometry width="50" height="50" relative="1" as="geometry">
            <mxPoint x="-340" y="430" as="sourcePoint" />
            <mxPoint x="-290" y="380" as="targetPoint" />
          </mxGeometry>
        </mxCell>
        <mxCell id="NXSZCElVhn8slsT99n_t-14" value="" style="endArrow=none;html=1;rounded=0;entryX=0.5;entryY=1;entryDx=0;entryDy=0;exitX=0.5;exitY=0;exitDx=0;exitDy=0;" edge="1" parent="1" source="NXSZCElVhn8slsT99n_t-6" target="NXSZCElVhn8slsT99n_t-3">
          <mxGeometry width="50" height="50" relative="1" as="geometry">
            <mxPoint x="-340" y="430" as="sourcePoint" />
            <mxPoint x="-290" y="380" as="targetPoint" />
          </mxGeometry>
        </mxCell>
        <mxCell id="NXSZCElVhn8slsT99n_t-15" value="" style="endArrow=none;html=1;rounded=0;entryX=0.5;entryY=1;entryDx=0;entryDy=0;exitX=0.464;exitY=-0.05;exitDx=0;exitDy=0;exitPerimeter=0;" edge="1" parent="1" source="NXSZCElVhn8slsT99n_t-5" target="NXSZCElVhn8slsT99n_t-4">
          <mxGeometry width="50" height="50" relative="1" as="geometry">
            <mxPoint x="-340" y="430" as="sourcePoint" />
            <mxPoint x="-290" y="380" as="targetPoint" />
          </mxGeometry>
        </mxCell>
      </root>
    </mxGraphModel>
  </diagram>
</mxfile>
